<svg width="152" height="37" viewBox="0 0 152 37" fill="none" xmlns="http://www.w3.org/2000/svg">
<path d="M31.6818 18.5455C31.6818 22.2273 31.017 25.4091 29.6875 28.0909C28.358 30.7727 26.5341 32.8409 24.2159 34.2955C21.8977 35.75 19.25 36.4773 16.2727 36.4773C13.2955 36.4773 10.6477 35.75 8.32955 34.2955C6.01136 32.8409 4.1875 30.7727 2.85795 28.0909C1.52841 25.4091 0.863636 22.2273 0.863636 18.5455C0.863636 14.8636 1.52841 11.6818 2.85795 9C4.1875 6.31818 6.01136 4.25 8.32955 2.79545C10.6477 1.34091 13.2955 0.613635 16.2727 0.613635C19.25 0.613635 21.8977 1.34091 24.2159 2.79545C26.5341 4.25 28.358 6.31818 29.6875 9C31.017 11.6818 31.6818 14.8636 31.6818 18.5455ZM27.5909 18.5455C27.5909 15.5227 27.0852 12.9716 26.0739 10.892C25.0739 8.8125 23.7159 7.23864 22 6.17045C20.2955 5.10227 18.3864 4.56818 16.2727 4.56818C14.1591 4.56818 12.2443 5.10227 10.5284 6.17045C8.82386 7.23864 7.46591 8.8125 6.45455 10.892C5.45455 12.9716 4.95455 15.5227 4.95455 18.5455C4.95455 21.5682 5.45455 24.1193 6.45455 26.1989C7.46591 28.2784 8.82386 29.8523 10.5284 30.9205C12.2443 31.9886 14.1591 32.5227 16.2727 32.5227C18.3864 32.5227 20.2955 31.9886 22 30.9205C23.7159 29.8523 25.0739 28.2784 26.0739 26.1989C27.0852 24.1193 27.5909 21.5682 27.5909 18.5455ZM41.2443 9.81818L47.517 20.5227L53.7898 9.81818H58.4261L49.9716 22.9091L58.4261 36H53.7898L47.517 25.8409L41.2443 36H36.608L44.9261 22.9091L36.608 9.81818H41.2443ZM64.1662 36V9.81818H68.1889V36H64.1662ZM66.2116 5.45455C65.4276 5.45455 64.7514 5.1875 64.1832 4.65341C63.6264 4.11932 63.348 3.47727 63.348 2.72727C63.348 1.97727 63.6264 1.33523 64.1832 0.801135C64.7514 0.267045 65.4276 0 66.2116 0C66.9957 0 67.6662 0.267045 68.223 0.801135C68.7912 1.33523 69.0753 1.97727 69.0753 2.72727C69.0753 3.47727 68.7912 4.11932 68.223 4.65341C67.6662 5.1875 66.9957 5.45455 66.2116 5.45455ZM86.875 36H76.1023V1.09091H87.3523C90.7386 1.09091 93.6364 1.78977 96.0455 3.1875C98.4545 4.57386 100.301 6.56818 101.585 9.17045C102.869 11.7614 103.511 14.8636 103.511 18.4773C103.511 22.1136 102.864 25.2443 101.568 27.8693C100.273 30.483 98.3864 32.4943 95.9091 33.9034C93.4318 35.3011 90.4205 36 86.875 36ZM80.3295 32.25H86.6023C89.4886 32.25 91.8807 31.6932 93.7784 30.5795C95.6761 29.4659 97.0909 27.8807 98.0227 25.8239C98.9545 23.767 99.4205 21.3182 99.4205 18.4773C99.4205 15.6591 98.9602 13.233 98.0398 11.1989C97.1193 9.15341 95.7443 7.58523 93.9148 6.49432C92.0852 5.39204 89.8068 4.84091 87.0795 4.84091H80.3295V32.25ZM120.693 36.5455C118.33 36.5455 116.256 35.983 114.472 34.858C112.699 33.733 111.312 32.1591 110.312 30.1364C109.324 28.1136 108.83 25.75 108.83 23.0455C108.83 20.3182 109.324 17.9375 110.312 15.9034C111.312 13.8693 112.699 12.2898 114.472 11.1648C116.256 10.0398 118.33 9.47727 120.693 9.47727C123.057 9.47727 125.125 10.0398 126.898 11.1648C128.682 12.2898 130.068 13.8693 131.057 15.9034C132.057 17.9375 132.557 20.3182 132.557 23.0455C132.557 25.75 132.057 28.1136 131.057 30.1364C130.068 32.1591 128.682 33.733 126.898 34.858C125.125 35.983 123.057 36.5455 120.693 36.5455ZM120.693 32.9318C122.489 32.9318 123.966 32.4716 125.125 31.5511C126.284 30.6307 127.142 29.4205 127.699 27.9205C128.256 26.4205 128.534 24.7955 128.534 23.0455C128.534 21.2955 128.256 19.6648 127.699 18.1534C127.142 16.642 126.284 15.4205 125.125 14.4886C123.966 13.5568 122.489 13.0909 120.693 13.0909C118.898 13.0909 117.42 13.5568 116.261 14.4886C115.102 15.4205 114.244 16.642 113.688 18.1534C113.131 19.6648 112.852 21.2955 112.852 23.0455C112.852 24.7955 113.131 26.4205 113.688 27.9205C114.244 29.4205 115.102 30.6307 116.261 31.5511C117.42 32.4716 118.898 32.9318 120.693 32.9318ZM138.697 36V9.81818H142.584V13.7727H142.857C143.334 12.4773 144.197 11.4261 145.447 10.6193C146.697 9.8125 148.107 9.40909 149.675 9.40909C149.97 9.40909 150.339 9.41477 150.783 9.42614C151.226 9.4375 151.561 9.45455 151.788 9.47727V13.5682C151.652 13.5341 151.339 13.483 150.851 13.4148C150.374 13.3352 149.868 13.2955 149.334 13.2955C148.061 13.2955 146.925 13.5625 145.925 14.0966C144.936 14.6193 144.152 15.3466 143.572 16.2784C143.004 17.1989 142.72 18.25 142.72 19.4318V36H138.697Z" fill="black"/>
</svg>
